PathFileType	4	(X/Y/Z)	/Users/itak/Documents/Research/Walk-IL/dataset/trc/00042_00004.trc
DataRate	CameraRate	NumFrames	NumMarkers	Units	OrigDataRate	OrigDataStartFrame	OrigNumFrames
100.000000	100.000000	4	53	mm	100.000000	135	540
Frame#	Time	RPSI			LPSI			L3			STRN			T10			C7			CLAV			RBAK			LBAK			LSHO			LUPA			LAEL			LAOL			LWTS			LWPS			LFRA			LIFD			LHPS			LHTS			RSHO			RUPA			RAEL			RAOL			RWTS			RWPS			RFRA			RIFD			RHTS			RHPS			RBHD			LFHD			RFHD			LBHD			LHIP			RHIP			RASI			LASI			LKNE			LTHI			LANK			LTIP			LTOE			LMT1			LMT5			LHEE			RKNE			RTHI			RANK			RTIP			RTOE			RMT1			RMT5			RHEE			
		X1	Y1	Z1	X2	Y2	Z2	X3	Y3	Z3	X4	Y4	Z4	X5	Y5	Z5	X6	Y6	Z6	X7	Y7	Z7	X8	Y8	Z8	X9	Y9	Z9	X10	Y10	Z10	X11	Y11	Z11	X12	Y12	Z12	X13	Y13	Z13	X14	Y14	Z14	X15	Y15	Z15	X16	Y16	Z16	X17	Y17	Z17	X18	Y18	Z18	X19	Y19	Z19	X20	Y20	Z20	X21	Y21	Z21	X22	Y22	Z22	X23	Y23	Z23	X24	Y24	Z24	X25	Y25	Z25	X26	Y26	Z26	X27	Y27	Z27	X28	Y28	Z28	X29	Y29	Z29	X30	Y30	Z30	X31	Y31	Z31	X32	Y32	Z32	X33	Y33	Z33	X34	Y34	Z34	X35	Y35	Z35	X36	Y36	Z36	X37	Y37	Z37	X38	Y38	Z38	X39	Y39	Z39	X40	Y40	Z40	X41	Y41	Z41	X42	Y42	Z42	X43	Y43	Z43	X44	Y44	Z44	X45	Y45	Z45	X46	Y46	Z46	X47	Y47	Z47	X48	Y48	Z48	X49	Y49	Z49	X50	Y50	Z50	X51	Y51	Z51	X52	Y52	Z52	X53	Y53	Z53	

136	1.35	-1244.39111328125	1080.19482421875	169.6620330810547	-1251.973022460938	1070.91943359375	5.863551616668701	-1253.743286132812	1130.315307617188	78.28204345703125	-1027.04052734375	1321.177734375	75.09070587158203	-1275.812744140625	1277.037353515625	74.83003234863281	-1221.692504882812	1543.280029296875	60.92791748046875	-1065.779174804688	1447.75341796875	68.05457305908203	-1275.211059570312	1408.856689453125	143.4027404785156	-1240.308471679688	1500.307250976562	-36.60627365112305	-1137.63623046875	1503.475341796875	-111.5005569458008	-1170.419677734375	1376.213989257812	-185.6803131103516	-1175.403930664062	1157.817749023438	-205.9813079833984	-1230.680419921875	1148.930053710938	-115.8151931762695	-1093.78759765625	904.6658935546875	-146.3437194824219	-1171.056762695312	891.0159301757812	-187.2864532470703	-1166.083374023438	1041.650390625	-209.9571075439453	-1075.468627929688	723.2471923828125	-114.5486602783203	-1139.676635742188	800.1017456054688	-183.2126007080078	-1074.076293945312	810.6343383789062	-156.0859069824219	-1145.211669921875	1528.665649414062	237.0583038330078	-1160.079467773438	1459.923095703125	309.6322021484375	-1201.637817382812	1192.905029296875	337.9109497070312	-1201.839477539062	1163.568969726562	241.3165435791016	-1090.538208007812	924.3919677734375	314.9744873046875	-1154.964477539062	916.8019409179688	380.697265625	-1193.141235351562	1117.288940429688	355.1722106933594	-1095.890258789062	742.287353515625	297.5119018554688	-1066.7900390625	812.7131958007812	330.7931823730469	-1121.331787109375	813.8414916992188	382.1402587890625	-1189.364135742188	1712.41162109375	-6.119119167327881	-1019.519958496094	1756.9482421875	124.2162322998047	-1016.010681152344	1757.874267578125	25.6721248626709	-1187.929443359375	1709.976196289062	138.5561981201172	-1162.572631835938	963.2301025390625	-106.3805999755859	-1132.162841796875	961.8729858398438	267.1490478515625	-1031.521728515625	995.0274658203125	188.8523406982422	-1044.549560546875	1009.835815429688	-45.7565803527832	-1122.4453125	517.3139038085938	-44.12216949462891	-1144.754272460938	653.7786865234375	-84.47199249267578	-1226.798095703125	42.19786071777344	-31.43917274475098	-1205.954711914062	287.7549133300781	-56.79572677612305	-1008.52197265625	41.68677520751953	36.20522689819336	-1068.110229492188	50.56861114501953	51.98375701904297	-1102.948120117188	42.36898422241211	-48.53050994873047	-1297.779907226562	50.84206008911133	20.08330726623535	-1134.682250976562	525.0656127929688	215.4389953613281	-1112.628295898438	794.10986328125	260.8822631835938	-1242.832397460938	45.63824081420898	182.8297729492188	-1161.39697265625	405.0064392089844	213.9046478271484	-1008.136108398438	46.05781173706055	151.4182739257812	-1070.008544921875	51.18188858032227	119.2750396728516	-1094.029174804688	45.03386688232422	212.4517822265625	-1294.301635742188	46.31082534790039	134.4531097412109	
137	1.36	-1244.06396484375	1080.205078125	169.0215454101562	-1251.535888671875	1070.828857421875	5.21628999710083	-1253.351196289062	1130.282104492188	77.57836151123047	-1026.552368164062	1321.133178710938	74.34983825683594	-1275.311889648438	1277.03173828125	74.13178253173828	-1221.167602539062	1543.302490234375	60.13215637207031	-1065.30029296875	1447.700317382812	67.239501953125	-1274.735107421875	1408.877319335938	142.6489105224609	-1239.816772460938	1500.273803710938	-37.36885452270508	-1137.147216796875	1503.385131835938	-112.2956466674805	-1170.01708984375	1376.085205078125	-186.4221649169922	-1175.2314453125	1157.69775390625	-206.6764373779297	-1230.346801757812	1148.864624023438	-116.4285583496094	-1093.515991210938	904.5299682617188	-146.9709167480469	-1170.896728515625	890.8970947265625	-187.8116455078125	-1165.844848632812	1041.520629882812	-210.5571136474609	-1074.904418945312	723.1282348632812	-115.5367126464844	-1139.575927734375	799.9961547851562	-183.8009490966797	-1073.978393554688	810.4512329101562	-156.7504577636719	-1144.673950195312	1528.670288085938	236.2494354248047	-1159.49169921875	1459.970092773438	308.8695678710938	-1200.967529296875	1192.9072265625	337.2052917480469	-1201.205200195312	1163.579345703125	240.6291198730469	-1089.3955078125	924.8751220703125	314.1138610839844	-1153.530517578125	916.837158203125	379.7679748535156	-1192.31787109375	1117.247680664062	354.43994140625	-1093.799682617188	742.534423828125	296.5382385253906	-1064.96240234375	813.1217651367188	329.782470703125	-1119.57666015625	813.9791259765625	381.1164855957031	-1188.683959960938	1712.317260742188	-7.177432537078857	-1019.519897460938	1756.943115234375	123.9063034057617	-1015.536560058594	1757.922973632812	25.37157249450684	-1187.910766601562	1709.744995117188	137.4771575927734	-1162.017700195312	963.118896484375	-106.9418411254883	-1131.936157226562	961.9232788085938	266.6295471191406	-1031.211303710938	995.0316162109375	188.3011016845703	-1044.06640625	1009.720825195312	-46.23628234863281	-1122.085693359375	517.2604370117188	-44.30191421508789	-1144.28564453125	653.6966552734375	-84.83282470703125	-1226.791870117188	42.15597152709961	-31.48672485351562	-1205.701782226562	287.6713562011719	-57.02025985717773	-1008.555053710938	41.696533203125	36.22486114501953	-1068.126342773438	50.55980682373047	52.01728820800781	-1102.951416015625	42.37224960327148	-48.51510238647461	-1297.803833007812	50.80802917480469	20.01339530944824	-1134.292114257812	525.1351928710938	215.170654296875	-1112.4326171875	794.1282958984375	260.5016479492188	-1242.841796875	45.6602783203125	182.8058776855469	-1161.088012695312	404.9777221679688	213.6529083251953	-1008.144836425781	46.06644821166992	151.424072265625	-1070.013916015625	51.18173217773438	119.2706146240234	-1093.982788085938	45.06278228759766	212.4199829101562	-1294.3017578125	46.31950759887695	134.4281311035156	
138	1.37	-1243.715454101562	1080.21484375	168.3799438476562	-1251.076293945312	1070.736450195312	4.578099727630615	-1252.948364257812	1130.25634765625	76.87060546875	-1026.04443359375	1321.091796875	73.58985900878906	-1274.816650390625	1277.018676757812	73.41870880126953	-1220.650634765625	1543.333740234375	59.30068206787109	-1064.821044921875	1447.638427734375	66.40142822265625	-1274.259765625	1408.890014648438	141.8652801513672	-1239.331665039062	1500.249267578125	-38.1732177734375	-1136.644165039062	1503.292236328125	-113.114860534668	-1169.6171875	1375.94775390625	-187.1996154785156	-1175.042236328125	1157.573852539062	-207.40087890625	-1229.98583984375	1148.79736328125	-117.0680618286133	-1093.203369140625	904.38427734375	-147.5966186523438	-1170.727294921875	890.7736206054688	-188.3717651367188	-1165.600708007812	1041.392333984375	-211.1913299560547	-1074.146484375	723.1218872070312	-116.5587387084961	-1139.455810546875	799.8775634765625	-184.4047698974609	-1073.861206054688	810.2572021484375	-157.4153747558594	-1144.12890625	1528.670043945312	235.4229736328125	-1158.904296875	1460.019165039062	308.0779418945312	-1200.293334960938	1192.914306640625	336.4862976074219	-1200.563598632812	1163.588623046875	239.9309997558594	-1088.133178710938	925.3665161132812	313.2305908203125	-1151.994873046875	916.8917236328125	378.8319396972656	-1191.45703125	1117.207153320312	353.7110290527344	-1091.56689453125	742.8132934570312	295.5397644042969	-1063.001586914062	813.5820922851562	328.7438659667969	-1117.666381835938	814.15478515625	380.0897216796875	-1187.926147460938	1712.2490234375	-8.272601127624512	-1019.477111816406	1756.910766601562	123.6202087402344	-1014.993591308594	1757.942504882812	25.0748233795166	-1187.841186523438	1709.538330078125	136.3774566650391	-1161.465576171875	963.0079345703125	-107.5132141113281	-1131.6572265625	961.9734497070312	266.0996704101562	-1030.895874023438	995.023193359375	187.7278900146484	-1043.567016601562	1009.604919433594	-46.72890853881836	-1121.736572265625	517.213623046875	-44.48868560791016	-1143.8154296875	653.61376953125	-85.20246887207031	-1226.786499023438	42.10715866088867	-31.54146385192871	-1205.449829101562	287.5865783691406	-57.25502014160156	-1008.595886230469	41.71133422851562	36.24406814575195	-1068.148071289062	50.55342483520508	52.04850769042969	-1102.956665039062	42.37506484985352	-48.50331497192383	-1297.827270507812	50.76504135131836	19.93754959106445	-1133.810424804688	525.204345703125	214.9046630859375	-1112.178955078125	794.146728515625	260.1408081054688	-1242.848754882812	45.67914962768555	182.7856292724609	-1160.725463867188	404.9302368164062	213.4054260253906	-1008.156127929688	46.07936096191406	151.431396484375	-1070.022827148438	51.18471145629883	119.2684860229492	-1093.945434570312	45.08713912963867	212.3900756835938	-1294.3076171875	46.32773971557617	134.4022521972656	
139	1.38	-1243.343994140625	1080.223876953125	167.7394104003906	-1250.599731445312	1070.640747070312	3.952275991439819	-1252.530395507812	1130.238403320312	76.16581726074219	-1025.515625	1321.053955078125	72.80881500244141	-1274.32421875	1276.999633789062	72.69658660888672	-1220.134643554688	1543.365112304688	58.44084167480469	-1064.332763671875	1447.56982421875	65.54622650146484	-1273.775634765625	1408.896362304688	141.0586700439453	-1238.853393554688	1500.226440429688	-39.02092742919922	-1136.1298828125	1503.195922851562	-113.9589538574219	-1169.219482421875	1375.803466796875	-188.0113525390625	-1174.823120117188	1157.446166992188	-208.1497192382812	-1229.600219726562	1148.728637695312	-117.7359085083008	-1092.871459960938	904.2338256835938	-148.2224731445312	-1170.549194335938	890.6494140625	-188.9676208496094	-1165.351684570312	1041.264892578125	-211.8623962402344	-1073.184326171875	723.2396850585938	-117.610221862793	-1139.309692382812	799.7468872070312	-185.0219879150391	-1073.726196289062	810.0513916015625	-158.0683135986328	-1143.572143554688	1528.671508789062	234.5770111083984	-1158.312377929688	1460.072265625	307.257568359375	-1199.6171875	1192.929077148438	335.75390625	-1199.919555664062	1163.599975585938	239.2223205566406	-1086.732543945312	925.8388671875	312.3110046386719	-1150.363525390625	916.9691162109375	377.8907470703125	-1190.569580078125	1117.171020507812	352.9798278808594	-1089.185302734375	743.1319580078125	294.5207824707031	-1060.932495117188	814.0863647460938	327.6739807128906	-1115.608520507812	814.368408203125	379.0584716796875	-1187.104370117188	1712.210205078125	-9.408252716064453	-1019.382202148438	1756.857421875	123.3499908447266	-1014.388732910156	1757.942016601562	24.77959251403809	-1187.716674804688	1709.349609375	135.2578277587891	-1160.926025390625	962.895751953125	-108.0968780517578	-1131.292724609375	962.03466796875	265.56689453125	-1030.562133789062	995.00927734375	187.1449890136719	-1043.067749023438	1009.488830566406	-47.23804473876953	-1121.389892578125	517.1712036132812	-44.68383026123047	-1143.342163085938	653.5292358398438	-85.57909393310547	-1226.783325195312	42.05364608764648	-31.60224151611328	-1205.19482421875	287.4995727539062	-57.49601745605469	-1008.644226074219	41.73175430297852	36.26254272460938	-1068.175537109375	50.5499153137207	52.07697677612305	-1102.961791992188	42.37744522094727	-48.49321365356445	-1297.848876953125	50.71456909179688	19.85881996154785	-1133.230346679688	525.2649536132812	214.6460723876953	-1111.841674804688	794.1742553710938	259.7935180664062	-1242.8525390625	45.69432067871094	182.7702941894531	-1160.301025390625	404.8696594238281	213.1674194335938	-1008.168762207031	46.09741592407227	151.4407043457031	-1070.03466796875	51.19152069091797	119.2696151733398	-1093.921142578125	45.10628128051758	212.3651275634766	-1294.316040039062	46.3349609375	134.3774261474609	
